<?xml version="1.0" standalone="no"?>
<!DOCTYPE svg PUBLIC "-//W3C//DTD SVG 20010904//EN"
 "http://www.w3.org/TR/2001/REC-SVG-20010904/DTD/svg10.dtd">
<svg version="1.0" xmlns="http://www.w3.org/2000/svg"
 width="512.000000pt" height="512.000000pt" viewBox="0 0 512.000000 512.000000"
 preserveAspectRatio="xMidYMid meet">

<g transform="translate(0.000000,512.000000) scale(0.100000,-0.100000)"
fill="#C19F5F" stroke="none">
<path d="M2460 5095 l-24 -25 19 -133 c10 -74 16 -140 13 -149 -4 -8 -41 -35
-83 -60 l-77 -46 -57 34 c-205 121 -533 147 -841 68 -580 -151 -1094 -702
-1136 -1218 -17 -207 82 -310 361 -374 106 -25 409 -21 530 5 50 12 91 20 92
19 3 -3 -296 -443 -405 -594 -52 -74 -142 -193 -200 -265 -119 -150 -154 -201
-207 -307 -88 -175 -119 -315 -119 -540 0 -187 20 -316 78 -493 94 -285 269
-582 482 -818 90 -99 118 -123 197 -160 97 -45 172 -48 333 -14 399 83 791
277 1051 520 l78 72 75 -67 c230 -205 478 -347 786 -449 453 -150 599 -133
801 97 273 312 460 664 533 1008 30 141 37 377 16 509 -33 199 -108 371 -235
538 -151 197 -173 222 -213 225 -45 4 -78 -24 -78 -67 0 -29 28 -69 158 -231
106 -131 178 -283 212 -450 19 -91 21 -126 17 -260 -6 -173 -20 -251 -78 -424
-52 -156 -134 -320 -240 -481 -81 -122 -132 -185 -117 -144 18 48 30 270 25
459 -6 218 -21 339 -63 528 -58 261 -126 435 -322 827 -77 154 -204 417 -282
585 -177 379 -337 706 -384 784 -20 32 -36 61 -36 64 0 12 115 -9 155 -28 107
-52 207 -176 549 -680 114 -168 217 -313 228 -322 28 -25 70 -22 96 5 34 36
27 68 -31 154 -29 43 -106 156 -171 251 -64 94 -114 172 -111 172 4 0 53 -10
108 -22 135 -29 444 -32 549 -5 276 70 371 168 354 366 -24 283 -167 557 -425
811 -133 131 -176 160 -215 142 -35 -16 -58 -54 -51 -85 4 -15 40 -53 85 -92
252 -212 419 -490 452 -751 16 -126 4 -154 -85 -193 -96 -44 -181 -62 -318
-68 -181 -8 -367 22 -539 88 -73 28 -77 31 -144 119 -136 179 -249 260 -392
283 l-76 12 -48 65 c-66 90 -113 172 -149 262 -35 89 -64 220 -59 272 l3 36
205 -126 c113 -69 210 -131 217 -137 6 -7 21 -91 33 -187 18 -146 25 -179 43
-198 29 -31 83 -27 110 9 18 26 19 30 4 145 -9 65 -14 120 -12 122 1 2 51 -28
111 -65 l109 -68 23 -180 c19 -150 27 -184 44 -202 36 -38 100 -26 118 23 6
16 4 62 -5 136 -8 61 -13 113 -11 115 2 2 104 -58 226 -133 232 -143 261 -155
300 -119 26 23 27 78 2 103 -10 10 -58 43 -107 72 l-88 53 64 24 c79 30 99 47
99 88 0 35 -34 75 -66 75 -10 0 -73 -19 -140 -42 l-121 -42 -106 64 c-59 36
-107 68 -107 71 0 4 42 21 93 38 50 18 100 41 110 53 38 45 7 118 -52 118 -15
0 -95 -24 -177 -54 l-149 -53 -107 66 c-59 36 -108 68 -108 71 0 3 39 19 87
35 109 38 133 56 133 101 0 42 -29 74 -67 74 -16 0 -95 -25 -177 -55 l-150
-54 -140 86 c-78 47 -147 92 -154 98 -11 10 0 17 55 37 127 47 169 53 348 52
190 -1 277 -18 453 -88 104 -42 111 -43 146 -15 34 27 36 77 4 107 -28 26
-175 83 -288 111 -299 74 -588 48 -815 -72 l-64 -34 -94 56 -94 56 -7 75 c-8
86 -23 163 -38 203 -20 52 -79 63 -118 22z m-455 -443 c39 -12 90 -29 115 -40
l45 -19 -40 -25 c-22 -13 -92 -56 -156 -96 l-115 -71 -150 54 c-82 30 -161 55
-176 55 -39 0 -68 -32 -68 -74 0 -45 24 -63 133 -101 48 -16 87 -32 87 -35 0
-3 -49 -35 -108 -71 l-107 -66 -149 53 c-82 30 -162 54 -177 54 -59 0 -90 -73
-52 -118 10 -12 60 -35 111 -53 50 -17 92 -34 92 -38 0 -3 -48 -35 -107 -71
l-106 -64 -121 42 c-67 23 -130 42 -140 42 -32 0 -66 -40 -66 -75 0 -41 20
-58 99 -88 l64 -24 -88 -53 c-49 -29 -97 -62 -107 -72 -25 -25 -24 -80 2 -103
39 -36 68 -24 300 119 122 75 224 135 226 133 2 -2 -3 -54 -11 -115 -9 -74
-11 -120 -5 -136 18 -49 82 -61 118 -23 18 19 25 52 44 202 l23 180 109 68
c59 37 110 67 111 65 2 -2 -3 -57 -12 -122 -15 -115 -14 -119 4 -145 27 -36
81 -40 110 -9 18 19 25 52 43 198 12 96 24 178 26 182 3 5 380 239 428 266 14
8 -1 -134 -23 -213 -79 -281 -312 -556 -626 -734 -343 -196 -793 -247 -1067
-123 -94 43 -106 69 -90 195 27 218 145 444 337 646 210 221 501 380 800 436
113 21 345 14 440 -13z m680 -69 l45 -28 0 -91 c0 -203 67 -408 195 -599 43
-64 45 -70 29 -82 -10 -7 -21 -13 -26 -13 -4 0 -30 30 -57 67 -130 176 -255
497 -252 643 1 64 10 130 17 130 2 0 24 -12 49 -27z m-217 -80 c-11 -140 -35
-271 -74 -406 -34 -119 -131 -367 -143 -367 -3 1 -29 13 -58 28 l-52 27 44 63
c131 190 205 410 205 616 l0 92 38 22 c20 12 39 22 42 22 3 0 2 -44 -2 -97z
m160 -548 c30 -60 73 -137 96 -170 23 -33 45 -65 49 -72 5 -8 -16 -16 -70 -28
-43 -9 -94 -20 -114 -25 -25 -7 -56 -5 -109 6 -41 8 -76 16 -77 18 -1 1 15 42
36 92 21 49 56 144 77 211 33 101 41 118 48 100 5 -12 34 -71 64 -132z m-421
-371 c32 -14 94 -33 138 -43 l80 -17 3 -60 c5 -93 -18 -236 -153 -929 -73
-377 -105 -553 -135 -745 -12 -74 -28 -166 -37 -205 -113 -523 -425 -1060
-795 -1372 l-78 -64 -55 15 c-30 9 -59 24 -64 34 -5 9 -16 51 -26 92 -86 380
-68 829 50 1241 52 181 109 315 265 626 76 153 229 472 340 708 268 572 360
745 395 745 8 0 40 -12 72 -26z m792 -15 c42 -57 195 -362 361 -719 78 -168
227 -478 330 -690 201 -409 253 -541 304 -772 53 -234 60 -306 60 -588 1 -232
-2 -280 -21 -385 -41 -220 -51 -240 -139 -259 -28 -6 -39 -1 -95 45 -250 204
-504 554 -647 889 -113 264 -150 402 -221 828 l-51 303 11 297 c6 163 9 394 6
512 -7 280 -21 340 -108 457 l-39 52 53 15 c28 9 70 25 92 35 58 28 72 26 104
-20z m-1177 -185 c-38 -77 -156 -323 -262 -549 -106 -225 -251 -527 -323 -670
-168 -338 -226 -487 -287 -748 -58 -244 -82 -573 -61 -822 7 -77 14 -151 17
-165 5 -25 5 -25 -21 5 -47 54 -153 220 -209 326 -232 440 -268 872 -102 1213
45 94 77 139 256 367 105 135 198 267 503 714 l163 239 102 53 c57 28 144 81
195 116 50 35 93 63 95 62 2 -2 -28 -65 -66 -141z m822 39 c54 -52 84 -124 98
-229 11 -88 7 -440 -11 -1054 -4 -140 -4 -358 1 -484 11 -303 -2 -409 -72
-583 -117 -292 -378 -543 -754 -723 -122 -59 -334 -140 -367 -140 -6 0 22 37
63 83 252 279 437 593 558 943 61 176 85 283 145 632 30 174 82 457 115 627
98 497 149 789 156 880 4 53 11 85 18 85 6 0 29 -17 50 -37z m276 -2153 c111
-332 305 -673 534 -937 59 -68 102 -123 97 -123 -40 0 -337 120 -451 182 -164
89 -368 242 -433 325 -19 23 -19 24 22 87 105 161 191 401 191 533 0 20 2 34
4 32 3 -3 19 -47 36 -99z"/>
</g>
</svg>
