<?xml version="1.0" standalone="no"?>
<!DOCTYPE svg PUBLIC "-//W3C//DTD SVG 20010904//EN"
 "http://www.w3.org/TR/2001/REC-SVG-20010904/DTD/svg10.dtd">
<svg version="1.0" xmlns="http://www.w3.org/2000/svg"
 width="512.000000pt" height="512.000000pt" viewBox="0 0 512.000000 512.000000"
 preserveAspectRatio="xMidYMid meet">
<metadata>
Created by potrace 1.16, written by Peter Selinger 2001-2019
</metadata>
<g transform="translate(0.000000,512.000000) scale(0.100000,-0.100000)"
fill="#C19F5F" stroke="none">
<path d="M2305 5113 c-671 -72 -1279 -393 -1707 -903 -301 -358 -488 -764
-571 -1240 -19 -109 -21 -162 -21 -410 0 -248 2 -301 21 -410 94 -540 320
-987 693 -1374 383 -398 866 -650 1430 -749 109 -19 162 -21 410 -21 313 0
407 10 653 73 882 228 1600 946 1828 1828 63 246 73 340 73 653 0 313 -10 407
-73 653 -228 881 -946 1600 -1828 1828 -227 58 -334 71 -613 74 -140 2 -273 1
-295 -2z m513 -184 c416 -45 823 -207 1172 -465 135 -100 374 -339 474 -474
258 -349 420 -756 465 -1172 14 -125 14 -391 0 -516 -45 -416 -207 -823 -465
-1172 -100 -135 -339 -374 -474 -474 -349 -258 -756 -420 -1172 -465 -125 -14
-391 -14 -516 0 -416 45 -823 207 -1172 465 -135 100 -374 339 -474 474 -258
349 -420 756 -465 1172 -14 125 -14 391 0 516 45 416 207 823 465 1172 100
135 339 374 474 474 342 253 754 419 1155 464 114 13 419 14 533 1z"/>
<path d="M1904 3907 l-29 -25 0 -1322 0 -1322 29 -25 c23 -20 37 -24 65 -20
27 3 278 169 971 641 514 351 947 651 963 667 17 18 27 40 27 59 0 19 -10 41
-27 59 -16 16 -449 317 -963 667 -722 492 -943 639 -971 642 -27 3 -43 -2 -65
-21z m1076 -872 c377 -256 685 -470 685 -475 0 -5 -308 -219 -685 -475 -377
-257 -740 -505 -807 -551 l-123 -84 0 1110 0 1110 123 -84 c67 -46 430 -294
807 -551z"/>
</g>
</svg>
