<?xml version="1.0" standalone="no"?>
<!DOCTYPE svg PUBLIC "-//W3C//DTD SVG 20010904//EN"
 "http://www.w3.org/TR/2001/REC-SVG-20010904/DTD/svg10.dtd">
<svg version="1.0" xmlns="http://www.w3.org/2000/svg"
 width="512.000000pt" height="512.000000pt" viewBox="0 0 512.000000 512.000000"
 preserveAspectRatio="xMidYMid meet">

<g transform="translate(0.000000,512.000000) scale(0.100000,-0.100000)"
fill="#C19F5F" stroke="none">
<path d="M1180 4960 c-511 -91 -934 -442 -1099 -913 -61 -175 -75 -269 -75
-502 1 -268 27 -436 111 -715 58 -191 193 -490 314 -696 322 -548 832 -1098
1444 -1557 263 -197 639 -437 684 -437 47 0 420 238 688 439 946 709 1603
1593 1803 2426 50 206 64 330 64 550 0 223 -15 322 -75 492 -161 456 -554 794
-1049 905 -90 20 -132 23 -300 23 -215 0 -276 -8 -436 -60 -240 -78 -475 -236
-628 -423 -32 -40 -62 -72 -66 -72 -4 0 -38 36 -75 81 -206 244 -506 412 -830
464 -125 21 -344 18 -475 -5z m490 -106 c302 -52 596 -234 788 -488 l52 -69
-2 -645 -3 -645 -45 -13 c-25 -8 -46 -14 -46 -14 -1 0 -31 53 -66 118 -146
265 -279 454 -414 587 -129 126 -233 178 -295 145 -10 -6 -33 -39 -50 -73 -95
-189 -239 -346 -382 -417 -45 -22 -116 -49 -157 -61 -41 -11 -91 -31 -111 -44
-72 -47 -99 -156 -59 -243 22 -49 213 -244 310 -317 36 -26 69 -52 75 -57 5
-4 -208 -8 -473 -8 l-482 0 -16 38 c-74 171 -151 473 -175 681 -15 132 -6 421
15 516 127 565 584 964 1176 1025 93 10 248 3 360 -16z m2255 0 c561 -104 982
-523 1070 -1066 31 -192 15 -488 -41 -732 -23 -104 -93 -326 -128 -408 l-16
-38 -483 1 -482 0 29 22 c163 122 334 291 367 362 39 84 12 193 -60 240 -20
13 -72 34 -116 46 -230 62 -369 186 -519 461 -20 37 -46 74 -59 83 -60 42
-168 -9 -301 -140 -136 -134 -269 -323 -414 -587 -35 -65 -65 -118 -66 -118 0
0 -21 6 -46 14 l-45 13 -3 645 -2 644 37 50 c78 104 131 159 219 233 295 245
679 345 1059 275z m-2177 -1142 c86 -46 241 -233 384 -460 90 -144 182 -311
175 -318 -7 -7 -155 102 -260 193 -234 204 -388 412 -391 529 -1 44 16 74 43
74 9 -1 31 -9 49 -18z m1696 -13 c9 -47 -11 -154 -41 -213 -59 -117 -159 -243
-262 -329 -79 -67 -320 -231 -328 -223 -14 14 185 351 292 494 88 118 197 231
264 273 57 37 67 36 75 -2z m-1814 -282 c79 -161 265 -344 525 -517 44 -29 83
-56 88 -60 4 -3 1 -26 -8 -49 -18 -53 -19 -163 -1 -213 15 -43 19 -41 -79 -57
-239 -41 -450 -10 -670 98 -140 69 -261 158 -391 287 -128 127 -150 168 -117
213 25 33 47 44 153 75 132 39 228 101 350 225 94 96 106 105 111 85 4 -12 21
-51 39 -87z m2012 -1 c120 -121 218 -183 348 -222 106 -31 128 -42 153 -75 33
-45 11 -86 -117 -213 -166 -165 -324 -270 -507 -337 -202 -74 -426 -88 -610
-39 l-37 10 15 43 c19 54 18 150 -2 206 -8 25 -12 48 -8 51 5 4 62 43 128 88
258 173 437 364 511 544 10 27 20 48 21 48 2 0 49 -47 105 -104z m-1001 -528
c153 -52 205 -225 101 -340 -50 -56 -102 -78 -182 -78 -80 0 -132 22 -182 78
-102 113 -55 285 94 339 43 15 126 16 169 1z m-1095 -413 c135 -51 204 -65
342 -72 67 -3 122 -10 122 -15 0 -42 -40 -170 -77 -248 -39 -81 -59 -107 -137
-185 -94 -94 -173 -144 -284 -180 -76 -24 -91 -79 -31 -110 38 -20 185 -55
232 -55 20 0 37 -3 37 -8 0 -17 -78 -122 -136 -184 -68 -70 -76 -94 -44 -123
25 -23 66 -15 185 34 301 124 536 357 662 655 30 70 43 113 81 271 7 27 10
-288 11 -962 1 -552 -2 -1003 -6 -1003 -19 0 -345 223 -523 358 -455 346 -830
704 -1137 1086 -169 211 -387 551 -461 720 -12 27 -22 50 -22 52 0 2 246 4
546 4 l546 0 94 -35z m3214 29 c0 -13 -112 -226 -165 -314 -187 -309 -388
-563 -694 -874 -244 -248 -459 -437 -741 -653 -199 -153 -535 -381 -545 -371
-3 3 -4 454 -3 1004 3 839 5 988 16 932 76 -403 361 -748 744 -903 114 -46
153 -52 178 -30 32 29 24 53 -44 123 -61 65 -136 165 -136 183 0 5 17 9 38 9
46 0 193 35 231 55 60 31 45 86 -31 110 -111 36 -190 86 -283 180 -117 116
-184 244 -209 396 l-6 36 127 11 c133 12 255 41 358 84 l60 26 553 1 c303 0
552 -2 552 -5z m-2396 -86 c37 -26 44 -36 41 -57 -2 -14 -9 -57 -15 -95 -37
-233 -182 -493 -360 -644 -65 -55 -205 -152 -221 -152 -4 0 12 37 36 83 67
124 58 157 -43 157 -31 0 -74 3 -94 6 l-37 6 72 48 c84 55 208 182 256 263 58
98 96 209 116 340 5 32 10 37 33 38 15 1 56 9 92 19 36 9 68 18 72 19 4 0 28
-13 52 -31z m603 -8 c25 0 43 -26 43 -61 0 -79 67 -253 138 -355 53 -77 161
-182 239 -232 l62 -40 -37 -6 c-20 -3 -63 -6 -94 -6 -61 0 -88 -16 -88 -52 0
-20 35 -95 72 -155 11 -18 16 -33 11 -33 -16 0 -159 97 -223 152 -178 151
-323 411 -360 644 -6 38 -13 81 -15 96 -3 22 3 31 41 56 l46 29 72 -18 c39
-10 81 -19 93 -19z"/>
</g>
</svg>
