<?xml version="1.0" standalone="no"?>
<!DOCTYPE svg PUBLIC "-//W3C//DTD SVG 20010904//EN"
 "http://www.w3.org/TR/2001/REC-SVG-20010904/DTD/svg10.dtd">
<svg version="1.0" xmlns="http://www.w3.org/2000/svg"
 width="512.000000pt" height="512.000000pt" viewBox="0 0 512.000000 512.000000"
 preserveAspectRatio="xMidYMid meet">

<g transform="translate(0.000000,512.000000) scale(0.100000,-0.100000)"
fill="#C19F5F" stroke="none">
<path d="M1573 5110 c-37 -15 -176 -159 -221 -230 -89 -137 -136 -312 -130
-479 l3 -97 -80 28 c-107 36 -211 51 -319 45 -94 -5 -128 -20 -154 -68 -22
-41 -10 -297 18 -384 23 -71 73 -176 109 -230 28 -41 27 -45 -14 -45 -51 0
-94 -26 -111 -65 -21 -52 -19 -243 5 -336 25 -100 64 -193 106 -256 19 -29 35
-54 35 -57 0 -2 -18 -6 -40 -10 -108 -17 -124 -48 -117 -235 6 -181 40 -295
128 -432 16 -25 29 -49 29 -52 0 -4 -17 -7 -37 -7 -97 -1 -123 -47 -123 -215
0 -135 14 -180 63 -203 39 -19 91 -7 117 25 17 21 20 40 20 115 l0 90 63 -7
c141 -17 253 -62 354 -145 136 -111 232 -304 233 -468 l0 -44 -84 7 c-94 8
-117 1 -141 -45 -22 -43 -18 -76 13 -110 21 -24 40 -33 87 -40 33 -6 77 -10
98 -10 l37 0 0 -544 0 -545 23 -26 c14 -17 36 -28 63 -32 36 -5 46 -1 75 25
l34 30 3 545 2 544 75 7 c160 15 315 72 443 163 l64 46 67 -27 c63 -25 173
-50 274 -62 42 -5 47 -8 42 -27 -38 -175 -94 -1092 -71 -1180 8 -32 59 -67 98
-67 16 0 41 12 60 29 l33 29 7 250 c3 138 11 317 17 399 12 156 49 510 56 530
2 7 35 -5 89 -32 137 -69 226 -89 386 -89 110 0 149 4 214 22 85 24 192 74
260 121 142 98 269 263 250 324 -19 60 -132 160 -259 228 -78 43 -78 43 -54
58 53 34 175 160 219 228 54 81 106 200 115 259 9 59 -18 94 -103 134 l-70 34
79 74 c43 40 94 95 113 120 71 98 146 281 146 358 0 49 -22 77 -83 104 -28 14
-54 25 -56 27 -2 1 25 28 59 59 123 114 212 260 250 410 27 105 26 166 -2 198
-30 34 -109 63 -221 82 -51 9 -93 17 -93 17 -1 1 18 36 42 76 83 142 120 299
111 470 -9 174 -60 318 -121 348 -31 14 -40 14 -112 -2 -268 -59 -496 -244
-599 -485 -10 -25 -22 -49 -26 -53 -3 -5 -23 12 -44 37 -42 51 -159 143 -222
175 -23 12 -59 21 -79 21 -31 0 -44 -7 -77 -42 -57 -63 -94 -119 -137 -211
-59 -129 -75 -201 -75 -358 l0 -135 -50 19 c-92 35 -142 3 -202 -128 l-28 -62
-45 5 c-25 3 -46 6 -48 7 -2 2 15 31 37 65 87 134 139 333 127 488 -7 90 -24
135 -57 153 -12 6 -65 13 -118 16 -110 6 -240 -14 -333 -51 l-57 -23 1 116 c1
225 -73 416 -220 573 -112 119 -157 143 -219 118z m165 -378 c126 -241 93
-528 -83 -727 l-35 -40 -51 55 c-103 113 -155 266 -146 440 7 149 50 260 143
375 l48 58 47 -52 c26 -29 61 -78 77 -109z m2331 -129 c16 -79 14 -208 -4
-278 -23 -89 -87 -213 -145 -277 -93 -104 -296 -217 -320 -178 -14 23 -25 118
-23 203 5 239 165 468 391 563 84 34 87 33 101 -33z m-907 -310 c100 -90 161
-180 199 -294 34 -105 34 -282 1 -385 -25 -77 -79 -175 -100 -182 -18 -6 -163
144 -196 203 -94 170 -111 386 -42 554 27 67 72 141 86 141 6 0 29 -17 52 -37z
m-2138 -133 c181 -46 336 -169 415 -330 42 -86 71 -192 71 -264 l0 -39 -77 5
c-188 12 -364 118 -474 285 -60 92 -89 177 -96 281 l-6 82 45 0 c25 0 79 -9
122 -20z m1352 -50 c-4 -39 -14 -94 -23 -123 -63 -213 -244 -388 -458 -442
-65 -17 -175 -20 -175 -6 0 50 27 180 50 238 88 229 326 398 564 402 l49 1 -7
-70z m1818 -351 c57 -12 57 -12 51 -43 -3 -17 -25 -69 -47 -116 -120 -247
-413 -392 -682 -338 -58 11 -58 11 -52 42 3 17 25 69 47 116 121 246 415 392
683 339z m-1377 -192 c182 -123 283 -330 270 -551 -5 -83 -32 -199 -57 -236
-16 -24 -113 33 -196 115 -78 78 -141 189 -169 300 -17 67 -19 209 -5 272 17
74 51 153 65 153 8 0 49 -24 92 -53z m-1783 -133 c262 -63 475 -329 476 -593
l0 -44 -71 7 c-88 8 -206 46 -279 91 -174 106 -300 316 -300 503 l0 62 58 -6
c31 -3 84 -12 116 -20z m1344 -7 c6 -49 -28 -189 -63 -262 -67 -137 -175 -244
-314 -307 -65 -30 -185 -58 -248 -58 l-35 0 7 63 c19 172 72 285 190 402 108
109 220 166 360 185 89 12 99 9 103 -23z m1626 -388 c21 -7 41 -19 43 -27 11
-27 -68 -163 -137 -236 -107 -112 -231 -175 -388 -197 -108 -15 -292 13 -292
44 0 25 62 141 105 197 79 102 217 191 353 225 67 17 256 13 316 -6z m-1325
-286 c62 -64 95 -107 119 -157 44 -91 72 -203 72 -291 0 -71 -31 -220 -50
-239 -28 -28 -236 124 -304 223 l-28 40 30 78 c44 114 56 184 56 316 1 65 5
117 10 117 5 0 48 -39 95 -87z m-1665 -38 c175 -37 344 -171 425 -335 42 -86
71 -193 71 -264 l0 -39 -77 6 c-296 20 -552 274 -571 565 l-5 82 44 0 c24 0
75 -7 113 -15z m1362 -55 c-16 -159 -74 -279 -190 -395 -91 -90 -163 -133
-276 -164 -85 -24 -190 -28 -190 -8 1 43 24 162 41 215 27 82 105 198 176 261
103 92 267 159 392 160 l54 1 -7 -70z m1437 -306 c33 -9 61 -23 64 -31 11 -28
-53 -129 -132 -209 -93 -94 -196 -152 -321 -180 -118 -26 -289 -10 -373 36
-21 11 -21 11 8 68 79 156 228 275 405 323 88 24 259 21 349 -7z m-1433 -379
c0 -66 -31 -189 -65 -260 -102 -211 -308 -350 -530 -358 l-60 -2 3 60 c8 153
68 281 187 401 63 64 98 90 165 123 82 40 188 68 268 70 30 1 32 -1 32 -34z
m225 -177 c41 -90 61 -197 56 -299 l-1 -26 -62 9 c-70 9 -161 36 -156 46 2 4
20 39 40 77 20 39 46 104 58 145 12 41 23 81 26 88 6 22 15 13 39 -40z m1025
-118 c69 -23 146 -64 195 -103 29 -24 29 -25 12 -51 -26 -39 -123 -112 -202
-152 -206 -102 -451 -80 -652 58 -24 16 -43 33 -43 38 0 17 108 114 162 148
57 34 144 68 213 82 69 15 243 4 315 -20z"/>
<path d="M904 1536 c-46 -46 -46 -86 0 -132 36 -36 67 -42 111 -22 69 31 71
139 4 174 -45 23 -78 17 -115 -20z"/>
</g>
</svg>
